HIERARCHY
ROOT Hips
{
	OFFSET 0.00000 0.00000 0.00000
	CHANNELS 6 Xposition Yposition Zposition Zrotation Yrotation Xrotation 
	JOINT LHipJoint
	{
		OFFSET 0 0 0
		CHANNELS 3 Zrotation Yrotation Xrotation
		JOINT LeftHip
		{
			OFFSET 1.80322 -1.53100 0.99595
			CHANNELS 3 Zrotation Yrotation Xrotation
			JOINT LeftKnee
			{
				OFFSET 2.25177 -6.18669 0.00000
				CHANNELS 3 Zrotation Yrotation Xrotation
				JOINT LeftAnkle
				{
					OFFSET 2.26601 -6.22582 0.00000
					CHANNELS 3 Zrotation Yrotation Xrotation
					JOINT LeftToe
					{
						OFFSET 0.23701 -0.65119 2.15848
						CHANNELS 3 Zrotation Yrotation Xrotation
						End Site
						{
							OFFSET 0.00000 -0.00000 1.12949
						}
					}
				}
			}
		}
	}
	JOINT RHipJoint
	{
		OFFSET 0 0 0
		CHANNELS 3 Zrotation Yrotation Xrotation
		JOINT RightHip
		{
			OFFSET -1.93977 -1.53100 0.99595
			CHANNELS 3 Zrotation Yrotation Xrotation
			JOINT RightKnee
			{
				OFFSET -2.28036 -6.26523 0.00000
				CHANNELS 3 Zrotation Yrotation Xrotation
				JOINT RightAnkle
				{
					OFFSET -2.25490 -6.19528 0.00000
					CHANNELS 3 Zrotation Yrotation Xrotation
					JOINT RightToe
					{
						OFFSET -0.28375 -0.77960 2.23137
						CHANNELS 3 Zrotation Yrotation Xrotation
						End Site
						{
							OFFSET -0.00000 -0.00000 1.17899
						}
					}
				}
			}
		}
	}
	JOINT lowerback
	{
		OFFSET 0 0 0
		CHANNELS 3 Zrotation Yrotation Xrotation
		JOINT Chest
		{
			OFFSET -0.00088 2.12090 -0.02806
			CHANNELS 3 Zrotation Yrotation Xrotation
			JOINT Chest2
			{
				OFFSET -0.00286 2.09666 0.12974
				CHANNELS 3 Zrotation Yrotation Xrotation
				JOINT lowerneck
				{
					OFFSET 0 0 0
					CHANNELS 3 Zrotation Yrotation Xrotation
					JOINT Neck
					{
						OFFSET 0.07328 1.83526 0.07290
						CHANNELS 3 Zrotation Yrotation Xrotation
						JOINT Head
						{
							OFFSET -0.06683 1.74974 -0.49542
							CHANNELS 3 Zrotation Yrotation Xrotation
							End Site
							{
								OFFSET -0.03398 1.85163 -0.17573
							}
						}
					}
				}
				JOINT LeftCollar
				{
					OFFSET 0 0 0
					CHANNELS 3 Zrotation Yrotation Xrotation
					JOINT LeftShoulder
					{
						OFFSET 3.02113 1.18018 0.40602
CHANNELS 3 Zrotation Xrotation Yrotation
						JOINT LeftElbow
						{
OFFSET 0 -4.585380 -0.000000
CHANNELS 3 Zrotation Xrotation Yrotation
							JOINT LeftWrist
							{
OFFSET 0 -2.689350 -0.000000
CHANNELS 3 Zrotation Xrotation Yrotation
								JOINT lhand
								{
									OFFSET 0 0 0
CHANNELS 3 Zrotation Xrotation Yrotation
									JOINT LFingers
									{
OFFSET 0 -0.585060 -0.000000
CHANNELS 3 Zrotation Xrotation Yrotation
										End Site
										{
OFFSET 0 -0.471690 -0.000000
										}
									}
								}
								JOINT LThumb
								{
OFFSET 0 0.000000 0.000000
CHANNELS 3 Zrotation Xrotation Yrotation
									End Site
									{
OFFSET 0 -0.478890 0.478890
									}
								}
							}
						}
					}
				}
				JOINT RightCollar
				{
					OFFSET 0 0 0
					CHANNELS 3 Zrotation Yrotation Xrotation
					JOINT RightShoulder
					{
						OFFSET -2.95074 1.18843 0.31430
CHANNELS 3 Zrotation Xrotation Yrotation
						JOINT RightElbow
						{
OFFSET 0 -4.474500 -0.000000
CHANNELS 3 Zrotation Xrotation Yrotation
							JOINT RightWrist
							{
OFFSET 0 -2.938960 -0.000000
CHANNELS 3 Zrotation Xrotation Yrotation
								JOINT rhand
								{
									OFFSET 0 0 0
CHANNELS 3 Zrotation Xrotation Yrotation
									JOINT RFingers
									{
OFFSET 0 -0.405090 -0.000000
CHANNELS 3 Zrotation Xrotation Yrotation
										End Site
										{
OFFSET 0 -0.326600 -0.000000
										}
									}
								}
								JOINT RThumb
								{
OFFSET 0 0.000000 0.000000
CHANNELS 3 Zrotation Xrotation Yrotation
									End Site
									{
OFFSET 0 -0.331580 0.331580
									}
								}
							}
						}
					}
				}
			}
		}
	}
}
MOTION
Frames: 4
Frame Time: 0.008333333333333333
-6.887502 14.676984 10.784183 145.641137 15.718341 241.608055 0.000000 0.000000 0.000000 -37.926664 -3.742175 -19.579238 0.504008 4.551079 12.632424 0.631368 4.018871 14.184776 0.486503 4.471718 12.407810 0.000000 0.000000 0.000000 -21.717785 7.187383 -96.820287 -11.648375 -18.238041 64.869936 -2.756331 -13.910932 -38.630607 -0.554777 -4.771293 13.257447 10.642729 -3.601657 13.477069 10.248550 -2.531400 -4.321586 6.209943 -1.764798 -12.491685 6.228142 2.480369 -21.494469 -6.430872 2.661674 12.483132 -2.814142 0.951265 7.515050 0.000000 0.000000 0.000000 20.917003 -83.617263 -71.730063 40.531480 -48.378714 18.836488 0.704535 4.423823 -10.250215 0.000000 0.000000 0.000000 -7.125000 0.000000 0.000000 -22.610261 39.182401 -3.449848 0.000000 0.000000 0.000000 -50.187855 -50.625232 1.070590 -16.756820 -26.536132 -3.978072 -19.769185 -10.208216 14.013751 0.000000 0.000000 0.000000 7.125000 0.000000 0.000000 7.117830 44.714972 0.050469
-6.935785 14.852505 11.309839 147.598104 11.633983 237.638574 0.000000 0.000000 0.000000 -36.886064 -4.270520 -17.036011 0.584467 4.895053 13.609547 0.617053 4.900800 13.986883 0.244195 3.178428 8.775983 0.000000 0.000000 0.000000 -18.194478 8.722949 -93.091860 -11.445045 -18.146053 64.218516 -2.209247 -13.180041 -35.298599 -0.456518 -4.334170 12.018832 11.340762 -4.006455 13.812593 9.713881 -2.875200 -4.553725 5.372274 -2.003217 -13.033731 6.533092 2.424707 -20.981548 -6.735011 2.604116 13.107471 -2.980129 0.915405 7.642206 0.000000 0.000000 0.000000 15.113242 -75.555828 -78.169875 50.943807 -53.361383 26.931696 -1.244862 3.806155 -9.782702 0.000000 0.000000 0.000000 -7.125000 0.000000 0.000000 -24.042659 38.593771 -4.077287 0.000000 0.000000 0.000000 -49.460714 -44.412094 4.720267 -16.605633 -26.334972 -3.910791 -19.550685 -5.816157 11.855770 0.000000 0.000000 0.000000 7.125000 0.000000 0.000000 6.889195 42.435941 0.438064
-6.944915 15.012658 11.853893 149.270471 8.670602 235.261766 0.000000 0.000000 0.000000 -36.589396 -4.992802 -16.174398 0.674150 5.249839 14.622590 0.528425 3.831154 12.958461 0.093908 1.970991 5.425672 0.000000 0.000000 0.000000 -19.383592 10.771472 -90.265268 -11.218998 -18.040582 63.490825 -1.538534 -11.016130 -29.683923 -0.299638 -3.517598 9.723568 10.437405 -3.785392 12.395878 9.526779 -2.990976 -4.771732 5.539937 -2.014112 -12.371261 6.477956 2.244915 -20.669572 -7.074694 2.466843 13.199818 -3.103495 0.821448 7.615704 0.000000 0.000000 0.000000 15.255198 -67.375847 -77.461046 63.499514 -57.160242 37.270189 -1.981796 6.805268 -8.004551 0.000000 0.000000 0.000000 -7.125000 0.000000 0.000000 -24.074913 36.912281 -5.162754 0.000000 0.000000 0.000000 -50.682889 -38.184074 8.023428 -16.772118 -26.556363 -3.984941 -18.843225 -0.224955 10.243613 0.000000 0.000000 0.000000 7.125000 0.000000 0.000000 7.230424 40.685394 0.774271
-6.932944 15.110491 12.391817 150.777289 5.824196 233.490733 0.000000 0.000000 0.000000 -36.379699 -5.787353 -15.889746 0.839123 5.842918 16.329401 0.372771 2.245186 10.974332 0.017081 0.840276 2.309400 0.000000 0.000000 0.000000 -23.581518 13.590203 -87.660934 -11.202450 -18.032757 63.437269 -1.205180 -6.137521 -23.805229 -0.076213 -1.756270 4.833100 9.670850 -3.374604 10.144235 9.484722 -2.963551 -4.965153 5.678928 -1.979678 -11.176085 6.542389 2.023992 -20.570706 -7.588088 2.268028 13.382514 -3.314264 0.685477 7.653419 0.000000 0.000000 0.000000 15.577063 -58.673632 -76.719729 79.064016 -59.528039 50.545059 -1.282205 4.155526 -8.919066 0.000000 0.000000 0.000000 -7.125000 0.000000 0.000000 -23.799264 37.800719 -4.532440 0.000000 0.000000 0.000000 -51.356643 -32.777962 9.827659 -17.250758 -27.186892 -4.201429 -17.961999 3.692594 8.712255 0.000000 0.000000 0.000000 7.125000 0.000000 0.000000 7.743895 39.020082 1.148833
